<svg width="16" height="16" viewBox="0 0 16 16" fill="none" xmlns="http://www.w3.org/2000/svg">
<path fill-rule="evenodd" clip-rule="evenodd" d="M1.91292 7.24625C1.91292 4.30073 4.30074 1.91292 7.24626 1.91292C10.1918 1.91292 12.5796 4.30073 12.5796 7.24625C12.5796 8.68547 12.0095 9.99154 11.0829 10.951C11.0583 10.9695 11.0347 10.99 11.0123 11.0124C10.9899 11.0347 10.9695 11.0583 10.951 11.0829C9.99152 12.0095 8.68546 12.5796 7.24626 12.5796C4.30074 12.5796 1.91292 10.1918 1.91292 7.24625ZM11.4654 12.4082C10.3161 13.3487 8.84709 13.9129 7.24626 13.9129C3.56436 13.9129 0.57959 10.9281 0.57959 7.24625C0.57959 3.56435 3.56436 0.579582 7.24626 0.579582C10.9282 0.579582 13.9129 3.56435 13.9129 7.24625C13.9129 8.84711 13.3487 10.3162 12.4082 11.4654L15.2176 14.2749C15.478 14.5352 15.478 14.9573 15.2176 15.2177C14.9573 15.478 14.5352 15.478 14.2748 15.2177L11.4654 12.4082Z" fill="#2D3440"/>
</svg>
